<?xml version="1.0" encoding="UTF-8" standalone="no"?><!DOCTYPE svg PUBLIC "-//W3C//DTD SVG 1.1//EN" "http://www.w3.org/Graphics/SVG/1.1/DTD/svg11.dtd"><svg width="100%" height="100%" viewBox="0 0 47 47" version="1.1" xmlns="http://www.w3.org/2000/svg" xmlns:xlink="http://www.w3.org/1999/xlink" xml:space="preserve" style="fill-rule:evenodd;clip-rule:evenodd;stroke-linejoin:round;stroke-miterlimit:1.41421;"><g><path d="M23.167,32.922c-5.388,0 -9.758,-4.368 -9.758,-9.755c0,-5.389 4.37,-9.758 9.758,-9.758c5.387,0 9.755,4.369 9.755,9.758c0,5.387 -4.368,9.755 -9.755,9.755" style="fill:#0099d9;fill-rule:nonzero;"/><path d="M23.272,6.835c0.797,0.007 1.593,0.067 2.381,0.188c1.525,0.233 3.017,0.684 4.415,1.337c1.96,0.916 3.732,2.224 5.187,3.825c1.193,1.312 2.171,2.817 2.881,4.441c0.525,1.198 0.903,2.46 1.125,3.75c0.346,2.009 0.315,4.083 -0.094,6.08c-0.328,1.601 -0.899,3.15 -1.687,4.581c-0.869,1.577 -2,3.007 -3.332,4.218c-1.435,1.304 -3.101,2.35 -4.9,3.072c-1.897,0.762 -3.933,1.157 -5.976,1.17c-2.047,0.013 -4.092,-0.357 -6.001,-1.096c-1.809,-0.701 -3.488,-1.728 -4.94,-3.016c-1.346,-1.194 -2.493,-2.61 -3.381,-4.175c-0.822,-1.45 -1.419,-3.024 -1.763,-4.654c-0.428,-2.028 -0.467,-4.138 -0.115,-6.18c0.211,-1.224 0.563,-2.424 1.046,-3.568c0.692,-1.633 1.652,-3.151 2.829,-4.478c1.435,-1.617 3.191,-2.946 5.139,-3.885c1.389,-0.669 2.872,-1.138 4.392,-1.39c0.785,-0.13 1.578,-0.2 2.373,-0.217c0.14,-0.003 0.281,-0.004 0.421,-0.003Zm-0.201,1.51c-0.755,0.007 -1.508,0.066 -2.254,0.185c-1.352,0.215 -2.672,0.62 -3.913,1.199c-1.779,0.831 -3.387,2.019 -4.708,3.472c-1.103,1.213 -2.003,2.607 -2.651,4.113c-0.445,1.034 -0.77,2.119 -0.968,3.227c-0.337,1.883 -0.307,3.831 0.088,5.703c0.3,1.419 0.811,2.793 1.512,4.064c0.788,1.431 1.815,2.73 3.024,3.829c1.303,1.183 2.814,2.133 4.448,2.789c1.75,0.702 3.632,1.061 5.518,1.061c1.855,0 3.707,-0.347 5.434,-1.028c1.61,-0.635 3.104,-1.555 4.399,-2.703c1.222,-1.085 2.263,-2.37 3.069,-3.791c0.73,-1.288 1.265,-2.685 1.58,-4.131c0.407,-1.869 0.448,-3.817 0.124,-5.702c-0.186,-1.08 -0.493,-2.14 -0.914,-3.152c-0.63,-1.514 -1.514,-2.92 -2.602,-4.147c-1.323,-1.491 -2.946,-2.712 -4.746,-3.566c-1.264,-0.599 -2.613,-1.017 -3.995,-1.237c-0.714,-0.114 -1.435,-0.172 -2.158,-0.184c-0.095,-0.001 -0.191,-0.001 -0.287,-0.001Z" style="fill:#0099d9;fill-rule:nonzero;"/></g></svg>